<svg xmlns="http://www.w3.org/2000/svg" version="1.1" xmlns:xlink="http://www.w3.org/1999/xlink" width="49" height="49"><svg width="49" height="49" viewBox="0 0 49 49" fill="none" xmlns="http://www.w3.org/2000/svg">
<rect width="48.2476" height="48.2476" rx="12.866" fill="#79FC79"></rect>
<path d="M9.85681 26.4857H8.47991V23.5071L11.4304 20.4442V20.1632H5.89471V15.33H17.2471V19.8541L13.7065 23.5352V23.76C14.306 23.9286 14.8961 24.2096 15.4768 24.603C16.0763 24.9964 16.5727 25.549 16.9661 26.2609C17.3782 26.9728 17.5843 27.8813 17.5843 28.9866C17.5843 30.4103 17.2846 31.5905 16.6851 32.5272C16.0856 33.4451 15.2988 34.1383 14.3247 34.6066C13.3506 35.0749 12.2921 35.3091 11.1494 35.3091C10.1003 35.3091 9.21051 35.2061 8.47991 35C7.74931 34.8127 7.14984 34.5785 6.68151 34.2975C6.21317 33.9978 5.82914 33.7168 5.52941 33.4545V28.6494H5.81041C5.97901 28.818 6.27874 29.0709 6.70961 29.4081C7.14047 29.7453 7.67438 30.0544 8.31131 30.3354C8.96698 30.6164 9.66948 30.7569 10.4188 30.7569C10.9433 30.7569 11.4023 30.607 11.7957 30.3073C12.2078 29.9888 12.4139 29.4737 12.4139 28.7618C12.4139 27.9563 12.1891 27.3755 11.7395 27.0196C11.2899 26.6637 10.6623 26.4857 9.85681 26.4857ZM18.6771 25.6146V24.6873C18.6771 22.8514 18.8551 21.3153 19.211 20.0789C19.567 18.8238 20.0634 17.8215 20.7003 17.0722C21.356 16.3229 22.096 15.789 22.9202 15.4705C23.7632 15.152 24.6624 14.9928 25.6178 14.9928C26.5732 14.9928 27.4631 15.152 28.2873 15.4705C29.1303 15.789 29.8703 16.3229 30.5072 17.0722C31.1629 17.8215 31.6687 18.8238 32.0246 20.0789C32.3806 21.3153 32.5585 22.8514 32.5585 24.6873V25.6146C32.5585 27.4505 32.3806 28.9866 32.0246 30.223C31.6687 31.4594 31.1629 32.4523 30.5072 33.2016C29.8703 33.9322 29.1303 34.4567 28.2873 34.7752C27.4631 35.0937 26.5732 35.2529 25.6178 35.2529C24.6624 35.2529 23.7632 35.0937 22.9202 34.7752C22.096 34.4567 21.356 33.9322 20.7003 33.2016C20.0634 32.4523 19.567 31.4594 19.211 30.223C18.8551 28.9866 18.6771 27.4505 18.6771 25.6146ZM23.707 25.5584C23.707 27.3755 23.8569 28.6681 24.1566 29.4362C24.4751 30.2043 24.9622 30.5883 25.6178 30.5883C26.236 30.5883 26.7044 30.2043 27.0228 29.4362C27.3413 28.6681 27.5005 27.3755 27.5005 25.5584V24.8559C27.5005 22.9826 27.3226 21.6525 26.9666 20.8657C26.6294 20.0602 26.1798 19.6574 25.6178 19.6574C25.0558 19.6574 24.5969 20.0602 24.2409 20.8657C23.885 21.6525 23.707 22.9826 23.707 24.8559V25.5584ZM36.8864 35V20.6409L34.0483 22.5517H33.7111V17.3813L36.8864 15.33H41.8039V35H36.8864Z" fill="#083526"></path>
</svg><style>@media (prefers-color-scheme: light) { :root { filter: none; } }
@media (prefers-color-scheme: dark) { :root { filter: none; } }
</style></svg>