<svg xmlns="http://www.w3.org/2000/svg" version="1.1" xmlns:xlink="http://www.w3.org/1999/xlink" width="49" height="49"><svg width="49" height="49" viewBox="0 0 49 49" fill="none" xmlns="http://www.w3.org/2000/svg">
<rect width="48.2476" height="48.2476" rx="12.866" fill="#79FC79"></rect>
<path d="M12.8556 34.1768C11.0876 34.1768 9.68796 33.6906 8.65663 32.7182C7.6253 31.7458 7.10226 30.5082 7.08753 29.0054H9.91633C9.99 29.801 10.2773 30.4345 10.7782 30.906C11.2939 31.3775 11.9937 31.6132 12.8777 31.6132C13.7175 31.6132 14.41 31.3627 14.9551 30.8618C15.5003 30.3609 15.7728 29.7273 15.7728 28.9612C15.7728 28.2098 15.5224 27.5984 15.0214 27.1269C14.5352 26.6407 13.9017 26.3976 13.1208 26.3976C12.34 26.3976 11.6033 26.5376 10.9108 26.8175V24.5633L14.4026 21.0936H7.57373V18.53H17.9386V20.8947L14.1816 24.4307C15.6255 24.4896 16.7452 24.939 17.5408 25.7788C18.3512 26.6039 18.7563 27.6941 18.7563 29.0496C18.7563 30.5671 18.2038 31.8047 17.0988 32.7624C16.0086 33.7053 14.5942 34.1768 12.8556 34.1768ZM26.6857 34.1768C24.7851 34.1768 23.2602 33.4622 22.111 32.0331C20.9766 30.604 20.4093 28.6813 20.4093 26.265C20.4093 23.834 20.9766 21.9113 22.111 20.4969C23.2602 19.0678 24.7851 18.3532 26.6857 18.3532C28.6011 18.3532 30.1333 19.0678 31.2825 20.4969C32.4317 21.9113 33.0063 23.834 33.0063 26.265C33.0063 28.6813 32.4317 30.604 31.2825 32.0331C30.1333 33.4622 28.6011 34.1768 26.6857 34.1768ZM26.6857 31.6132C27.7465 31.6132 28.5569 31.1565 29.1167 30.243C29.6913 29.3148 29.9786 27.9888 29.9786 26.265C29.9786 24.5412 29.6913 23.2226 29.1167 22.3091C28.5569 21.3809 27.7465 20.9168 26.6857 20.9168C25.6397 20.9168 24.8367 21.3809 24.2768 22.3091C23.717 23.2226 23.437 24.5412 23.437 26.265C23.437 27.9888 23.717 29.3148 24.2768 30.243C24.8367 31.1565 25.6397 31.6132 26.6857 31.6132ZM38.0759 21.845C37.3539 22.508 36.0942 23.0679 34.2968 23.5246V20.9389C34.9598 20.7768 35.6817 20.4822 36.4626 20.0549C37.2434 19.6129 37.9359 19.1046 38.54 18.53H41.0815V34H38.0759V21.845Z" fill="#083526"></path>
</svg><style>@media (prefers-color-scheme: light) { :root { filter: none; } }
@media (prefers-color-scheme: dark) { :root { filter: none; } }
</style></svg>